# xmcd CD database file
# Copyright (C) 1993-1998 Ti Kan
# 
# Track frame offsets:
#     150
#     14500
#     28507
#     46410
#     61725
#     74292
#     94522
#     112687
#     129660
#     147140
# 
# Disc length: 2306 seconds
# 
# Revision: 1
# Processed by: cddbd v1.4b41PL1 Copyright (c) Steve Scherf et al.
# Submitted via: DiscPlay 4.0.4
# 
DISCID=7c09000a
DTITLE=Seoul Brothers - Mad(e) in Korea
DYEAR=1900
DGENRE=
TTITLE0=Driving a Hyundai
TTITLE1=Sauna Blues
TTITLE2=Ein Sch lchen Kimchi
TTITLE3=Itaewon 1
TTITLE4=I wish it would rain
TTITLE5=Expat - Urlaub
TTITLE6=Seoul Samba
TTITLE7=Don t love me
TTITLE8=Itaewon 2
TTITLE9=Mal ganz ehrlich
EXTD=
EXTT0=
EXTT1=
EXTT2=
EXTT3=
EXTT4=
EXTT5=
EXTT6=
EXTT7=
EXTT8=
EXTT9=
PLAYORDER=
